<?xml version="1.0" encoding="UTF-8"?>
<svg id="Capa_1" data-name="Capa 1" xmlns="http://www.w3.org/2000/svg" viewBox="0 0 791.39 474.33">
  <defs>
    <style>
      .cls-1 {
        fill: #42297a;
      }

      .cls-2 {
        fill: #0ae69c;
      }
    </style>
  </defs>
  <path class="cls-2" d="M452.11,217.46v122.43h60.4c12.13,0,21.96-9.83,21.96-21.96v-60.81c0-22.52,18.25-40.77,40.77-40.77h.41s82.37,0,82.37,0v-64.73c0-9.12-7.39-16.52-16.52-16.52h-107.03c-45.49,0-82.37,36.88-82.37,82.37h0Z"/>
  <circle class="cls-2" cx="612.26" cy="294.41" r="45.56"/>
  <path class="cls-1" d="M175.6,152.74c6.2-11.26,18.12-18.89,31.88-18.89,20.13,0,36.45,16.32,36.45,36.45,0,5.94-1.49,11.53-4.01,16.48l-.11,.2-69.81,133.64-.47,.89c-6.24,11.87-18.38,18.78-32.83,18.46-20.29-.45-36.06-17.71-35.46-37.99,.15-5.18,1.1-9.59,3.34-14.06l.34-.65,70.63-134.47,.03-.06Z"/>
  <path class="cls-1" d="M343.77,317.51c0,12.13,9.83,21.96,21.96,21.96h45.2V196.58c0-34.03-27.03-62.22-61.05-62.92-24.22-.5-45.38,12.58-56.29,32.27l-.03,.04-63.68,120.02-.07,.14c-2.93,5.38-4.54,11.59-4.4,18.18,.41,19.38,16.99,35.63,36.37,35.66,13.91,.03,25.77-7.82,31.93-19.26l.05-.1,49.58-97.64,.42,94.53Z"/>
</svg>